<svg width="25" height="24" viewBox="0 0 25 24" fill="none" xmlns="http://www.w3.org/2000/svg">
<path d="M20.2109 3.36312L2.74269 8.29006C2.59574 8.33151 2.46493 8.41683 2.36776 8.53461C2.27059 8.65239 2.21169 8.79702 2.19892 8.94917C2.18615 9.10133 2.22012 9.25376 2.2963 9.38608C2.37248 9.51841 2.48723 9.62434 2.62523 9.6897L10.6512 13.4915C10.8078 13.5657 10.9338 13.6917 11.008 13.8482L14.8098 21.8743C14.8751 22.0122 14.9811 22.127 15.1134 22.2032C15.2457 22.2794 15.3981 22.3133 15.5503 22.3006C15.7025 22.2878 15.8471 22.2289 15.9649 22.1317C16.0826 22.0345 16.168 21.9037 16.2094 21.7568L21.1363 4.28856C21.1725 4.16024 21.1739 4.0246 21.1402 3.8956C21.1066 3.7666 21.0391 3.6489 20.9448 3.55463C20.8506 3.46036 20.7329 3.39292 20.6039 3.35926C20.4749 3.3256 20.3392 3.32693 20.2109 3.36312Z" stroke="#BE774D" stroke-width="2" stroke-linecap="round" stroke-linejoin="round"/>
<path d="M10.8936 13.6069L15.1362 9.36426" stroke="#BE774D" stroke-width="2" stroke-linecap="round" stroke-linejoin="round"/>
</svg>
