<svg width="20" height="20" viewBox="0 0 20 20" fill="none" xmlns="http://www.w3.org/2000/svg">
<path d="M14.1666 5.49967H5.83331M14.1666 5.49967H15.2572C16.9953 5.49967 17.8644 5.49967 18.3612 6.05481C18.8581 6.60994 18.7621 7.47366 18.5702 9.20111L18.3237 11.4199C17.9319 14.946 17.736 16.7091 16.5495 17.771C15.363 18.833 13.5753 18.833 9.99998 18.833C6.42465 18.833 4.63698 18.833 3.45048 17.771C2.26398 16.7091 2.06809 14.946 1.6763 11.4199L1.42977 9.20111C1.23783 7.47366 1.14186 6.60994 1.63872 6.05481C2.13559 5.49967 3.00463 5.49967 4.74271 5.49967H5.83331M14.1666 5.49967C14.1666 3.19849 12.3012 1.33301 9.99998 1.33301C7.75562 1.33301 5.92571 3.10749 5.8367 5.33002C5.83445 5.38629 5.83331 5.44285 5.83331 5.49967" stroke="#353F50" stroke-width="1.5"/>
<path d="M15 8.83333C15 9.29357 14.6269 9.66667 14.1667 9.66667C13.7064 9.66667 13.3333 9.29357 13.3333 8.83333C13.3333 8.3731 13.7064 8 14.1667 8C14.6269 8 15 8.3731 15 8.83333Z" fill="#353F50"/>
<path d="M6.66667 8.83333C6.66667 9.29357 6.29357 9.66667 5.83333 9.66667C5.3731 9.66667 5 9.29357 5 8.83333C5 8.3731 5.3731 8 5.83333 8C6.29357 8 6.66667 8.3731 6.66667 8.83333Z" fill="#353F50"/>
</svg>
